<svg width="1200" height="630" viewBox="0 0 1200 630" fill="none" xmlns="http://www.w3.org/2000/svg">
  <!-- Background Gradient -->
  <defs>
    <linearGradient id="bgGradient" x1="0%" y1="0%" x2="100%" y2="100%">
      <stop offset="0%" stopColor="#3B82F6" />
      <stop offset="50%" stopColor="#1D4ED8" />
      <stop offset="100%" stopColor="#1E40AF" />
    </linearGradient>
    <linearGradient id="cardGradient" x1="0%" y1="0%" x2="100%" y2="100%">
      <stop offset="0%" stopColor="#F8FAFC" />
      <stop offset="100%" stopColor="#E2E8F0" />
    </linearGradient>
  </defs>
  
  <!-- Background -->
  <rect width="1200" height="630" fill="url(#bgGradient)" />
  
  <!-- Main Card -->
  <rect x="100" y="100" width="1000" height="430" rx="20" fill="url(#cardGradient)" stroke="#E2E8F0" stroke-width="2" />
  
  <!-- Logo -->
  <circle cx="200" cy="200" r="40" fill="url(#bgGradient)" />
  <path d="M200 160v8m0 32v8m-16-24h12a4 4 0 0 1 0 8h-12m12 0h-12a4 4 0 0 0 0 8h12" stroke="white" stroke-width="3" stroke-linecap="round" stroke-linejoin="round" />
  <rect x="184" y="190" width="4" height="8" fill="white" opacity="0.8" rx="2"/>
  <rect x="192" y="186" width="4" height="12" fill="white" opacity="0.9" rx="2"/>
  <rect x="204" y="186" width="4" height="12" fill="white" opacity="0.9" rx="2"/>
  <rect x="212" y="190" width="4" height="8" fill="white" opacity="0.8" rx="2"/>
  
  <!-- Title -->
  <text x="300" y="180" font-family="Arial, sans-serif" font-size="48" font-weight="bold" fill="#1E293B">
    Free Investment Calculator USA
  </text>
  
  <!-- Subtitle -->
  <text x="300" y="230" font-family="Arial, sans-serif" font-size="28" fill="#64748B">
    Compare Savings vs Investments
  </text>
  
  <!-- Features -->
  <text x="300" y="280" font-family="Arial, sans-serif" font-size="24" fill="#475569">
    • S&P 500 Returns
  </text>
  <text x="300" y="310" font-family="Arial, sans-serif" font-size="24" fill="#475569">
    • Crypto & Gold
  </text>
  <text x="300" y="340" font-family="Arial, sans-serif" font-size="24" fill="#475569">
    • Compound Interest
  </text>
  <text x="300" y="370" font-family="Arial, sans-serif" font-size="24" fill="#475569">
    • AI-Powered Forecasts
  </text>
  
  <!-- Call to Action -->
  <rect x="300" y="420" width="200" height="50" rx="25" fill="url(#bgGradient)" />
  <text x="400" y="450" font-family="Arial, sans-serif" font-size="20" font-weight="bold" fill="white" text-anchor="middle">
    Start Planning
  </text>
  
  <!-- Domain -->
  <text x="1000" y="580" font-family="Arial, sans-serif" font-size="32" font-weight="bold" fill="white" text-anchor="end">
    nestvalue.us
  </text>
</svg>
